  <svg
        width="74"
        height="69"
        viewBox="0 0 74 69"
        fill="none"
        xmlns="http://www.w3.org/2000/svg"
        className="mr-2 h-10"
      >
        <path
          d="M8.64 46.626V66.49c0 1.223 1.036 1.73 1.358 1.846a2.212 2.212 0 002.368-.462l15.028-14.442c1.28-1.23 2.515-2.522 3.444-4.035a11.26 11.26 0 00.617-1.111c.92-1.869.92-3.669.023-5.468-1.333-2.677-4.737-5.4-9.866-7.983l-8.763 4.891c-2.598 1.477-4.208 4.084-4.208 6.899z"
          fill="#00378A"
        />
        <path
          d="M0 2.442v20.834c0 2.608 1.748 4.915 4.232 5.653 8.463 2.446 23.206 7.706 26.77 15.436.46 1.015.736 2.007.829 3.045 2.368-4.314 3.45-9.275 2.943-14.305a24.563 24.563 0 00-10.35-17.742L3.428.666A2.063 2.063 0 002.185.25c-.368 0-.69.07-1.035.254C.46.896 0 1.612 0 2.442z"
          fill="#2E4DFF"
        />
        <path
          d="M64.535 46.626V66.49c0 1.223-1.034 1.73-1.357 1.846a2.212 2.212 0 01-2.368-.462L45.431 53.098c-1.047-1.007-2.047-2.07-2.835-3.29-.625-.965-.876-1.521-.876-1.521-.92-1.869-.92-3.669-.024-5.468 1.334-2.677 4.738-5.4 9.866-7.983l8.763 4.891c2.622 1.477 4.21 4.084 4.21 6.899z"
          fill="#00378A"
        />
        <path
          d="M73.19 2.44v20.835c0 2.607-1.748 4.914-4.232 5.653-8.464 2.445-23.206 7.706-26.77 15.435-.46 1.015-.737 2.007-.829 3.046-2.369-4.315-3.45-9.276-2.944-14.305a24.557 24.557 0 0110.35-17.743L69.763.664A2.062 2.062 0 0171.005.25c.368 0 .69.07 1.034.254.69.392 1.151 1.107 1.151 1.938z"
          fill="#2E4DFF"
        />
      </svg>